<svg width="18" height="18" viewBox="0 0 18 18" fill="none" xmlns="http://www.w3.org/2000/svg">

<g id="eye">
<path id="Vector" d="M11.685 9C11.685 10.485 10.485 11.685 9 11.685C7.515 11.685 6.315 10.485 6.315 9C6.315 7.515 7.515 6.315 9 6.315C10.485 6.315 11.685 7.515 11.685 9Z" stroke="#6B7588" stroke-width="1.5" stroke-linecap="round" stroke-linejoin="round"/>
<path id="Vector_2" d="M9 15.2025C11.6475 15.2025 14.115 13.6425 15.8325 10.9425C16.5075 9.88501 16.5075 8.10751 15.8325 7.05001C14.115 4.35001 11.6475 2.79001 9 2.79001C6.3525 2.79001 3.885 4.35001 2.1675 7.05001C1.4925 8.10751 1.4925 9.88501 2.1675 10.9425C3.885 13.6425 6.3525 15.2025 9 15.2025Z" stroke="#6B7588" stroke-width="1.5" stroke-linecap="round" stroke-linejoin="round"/>
</g>

</svg>
